<svg id="elbIdAg2knK1" xmlns="http://www.w3.org/2000/svg" xmlns:xlink="http://www.w3.org/1999/xlink" viewBox="0 0 640 640" shape-rendering="geometricPrecision" text-rendering="geometricPrecision" project-id="79b7ec4d49fd432c94d2d0f43e20062c" export-id="a779269cde9a41d08c9721daceb9e493" cached="false"><path d="M535.3,70.7c6.4-6.1,15.7-8.3,24.3-5.5C569.4,68.5,576,77.7,576,88v186.9C576,406.1,467.9,512,337.2,512c-77,0-143.4-49.5-167.5-118.7C134.3,424.1,112,469.4,112,520c0,13.3-10.7,24-24,24s-24-10.7-24-24c0-74.9,38.2-140.9,96.1-179.7C195.4,316.7,237.5,304,280,304h80c13.3,0,24-10.7,24-24s-10.7-24-24-24h-80c-39.7,0-77.3,8.8-111,24.5c23.3-70,89.2-120.5,167-120.5c66.4,0,115.8-22.1,148.7-44c19.2-12.8,35.5-28.1,50.7-45.3h-.1Z" fill="#3c6"/></svg>
